<?xml version="1.0"?>
<!--Icons from directory ""-->
<svg xmlns="http://www.w3.org/2000/svg" width="29" height="145" viewBox="0 0 25 145">
	<svg xmlns:osb="http://www.openswatchbook.org/uri/2009/osb" xmlns:xlink="http://www.w3.org/1999/xlink" aria-hidden="true" data-prefix="fab" data-icon="dribbble" class="svg-inline--fa fa-dribbble fa-w-16" viewBox="0 0 512 512" width="25" height="25" id="dribbble" y="3"><defs><linearGradient id="dribbble-a" osb:paint="solid"><stop offset="0" stop-color="#9c9c9c"/></linearGradient><linearGradient xlink:href="#dribbble-a" id="dribbble-b" x1="8" y1="256" x2="504" y2="256" gradientUnits="userSpaceOnUse"/></defs><path fill="url(#dribbble-b)" d="M256 8C119.252 8 8 119.252 8 256s111.252 248 248 248 248-111.252 248-248S392.748 8 256 8zm163.97 114.366c29.503 36.046 47.369 81.957 47.835 131.955-6.984-1.477-77.018-15.682-147.502-6.818-5.752-14.041-11.181-26.393-18.617-41.614 78.321-31.977 113.818-77.482 118.284-83.523zM396.421 97.87c-3.81 5.427-35.697 48.286-111.021 76.519-34.712-63.776-73.185-116.168-79.04-124.008 67.176-16.193 137.966 1.27 190.061 47.489zm-230.48-33.25c5.585 7.659 43.438 60.116 78.537 122.509-99.087 26.313-186.36 25.934-195.834 25.809C62.38 147.205 106.678 92.573 165.941 64.62zM44.17 256.323c0-2.166.043-4.322.108-6.473 9.268.19 111.92 1.513 217.706-30.146 6.064 11.868 11.857 23.915 17.174 35.949-76.599 21.575-146.194 83.527-180.531 142.306C64.794 360.405 44.17 310.73 44.17 256.323zm81.807 167.113c22.127-45.233 82.178-103.622 167.579-132.756 29.74 77.283 42.039 142.053 45.189 160.638-68.112 29.013-150.015 21.053-212.768-27.882zm248.38 8.489c-2.171-12.886-13.446-74.897-41.152-151.033 66.38-10.626 124.7 6.768 131.947 9.055-9.442 58.941-43.273 109.844-90.795 141.978z"/></svg>
	<svg xmlns:osb="http://www.openswatchbook.org/uri/2009/osb" xmlns:xlink="http://www.w3.org/1999/xlink" aria-hidden="true" data-prefix="fab" data-icon="facebook" class="svg-inline--fa fa-facebook fa-w-16" viewBox="0 0 512 512" width="25" height="25" id="facebook" y="30"><defs><linearGradient id="facebook-b" osb:paint="solid"><stop offset="0" stop-color="#9f9f9f"/></linearGradient><linearGradient id="facebook-a" osb:paint="solid"><stop offset="0" stop-color="#f8f8f8"/></linearGradient><linearGradient xlink:href="#facebook-a" id="facebook-c" x1="8" y1="254.5" x2="504" y2="254.5" gradientUnits="userSpaceOnUse"/><linearGradient xlink:href="#facebook-b" id="facebook-d" x1="7.65" y1="254.53" x2="504.35" y2="254.53" gradientUnits="userSpaceOnUse"/></defs><path d="M504 256C504 119 393 8 256 8S8 119 8 256c0 123.78 90.69 226.38 209.25 245V327.69h-63V256h63v-54.64c0-62.15 37-96.48 93.67-96.48 27.14 0 55.52 4.84 55.52 4.84v61h-31.28c-30.8 0-40.41 19.12-40.41 38.73V256h68.78l-11 71.69h-57.78V501C413.31 482.38 504 379.78 504 256z" fill="url(#facebook-c)"/></svg>
	<svg xmlns:osb="http://www.openswatchbook.org/uri/2009/osb" xmlns:xlink="http://www.w3.org/1999/xlink" aria-hidden="true" data-prefix="fab" data-icon="google-plus" class="svg-inline--fa fa-google-plus fa-w-16" viewBox="0 0 496 512" width="25" height="25" id="google-plus" y="58"><defs><linearGradient id="google-plus-a" osb:paint="solid"><stop offset="0" stop-color="#f8f8f8"/></linearGradient><linearGradient xlink:href="#google-plus-a" id="google-plus-b" y1="256" x2="496" y2="256" gradientUnits="userSpaceOnUse"/></defs><path fill="url(#google-plus-b)" d="M248 8C111.1 8 0 119.1 0 256s111.1 248 248 248 248-111.1 248-248S384.9 8 248 8zm-70.7 372c-68.8 0-124-55.5-124-124s55.2-124 124-124c31.3 0 60.1 11 83 32.3l-33.6 32.6c-13.2-12.9-31.3-19.1-49.4-19.1-42.9 0-77.2 35.5-77.2 78.1s34.2 78.1 77.2 78.1c32.6 0 64.9-19.1 70.1-53.3h-70.1v-42.6h116.9c1.3 6.8 1.9 13.6 1.9 20.7 0 70.8-47.5 121.2-118.8 121.2zm230.2-106.2v35.5H372v-35.5h-35.5v-35.5H372v-35.5h35.5v35.5h35.2v35.5h-35.2z"/></svg>
	<svg xmlns:osb="http://www.openswatchbook.org/uri/2009/osb" xmlns:xlink="http://www.w3.org/1999/xlink" aria-hidden="true" data-prefix="fab" data-icon="instagram" class="svg-inline--fa fa-instagram fa-w-14" viewBox="0 0 448 512" width="25" height="25" id="instagram" y="84"><defs><linearGradient id="instagram-a" osb:paint="solid"><stop offset="0" stop-color="#9c9c9c"/></linearGradient><linearGradient xlink:href="#instagram-a" id="instagram-b" x1="-.075" y1="255.9" x2="448.175" y2="255.9" gradientUnits="userSpaceOnUse"/></defs><path fill="url(#instagram-b)" d="M224.1 141c-63.6 0-114.9 51.3-114.9 114.9s51.3 114.9 114.9 114.9S339 319.5 339 255.9 287.7 141 224.1 141zm0 189.6c-41.1 0-74.7-33.5-74.7-74.7s33.5-74.7 74.7-74.7 74.7 33.5 74.7 74.7-33.6 74.7-74.7 74.7zm146.4-194.3c0 14.9-12 26.8-26.8 26.8-14.9 0-26.8-12-26.8-26.8s12-26.8 26.8-26.8 26.8 12 26.8 26.8zm76.1 27.2c-1.7-35.9-9.9-67.7-36.2-93.9-26.2-26.2-58-34.4-93.9-36.2-37-2.1-147.9-2.1-184.9 0-35.8 1.7-67.6 9.9-93.9 36.1s-34.4 58-36.2 93.9c-2.1 37-2.1 147.9 0 184.9 1.7 35.9 9.9 67.7 36.2 93.9s58 34.4 93.9 36.2c37 2.1 147.9 2.1 184.9 0 35.9-1.7 67.7-9.9 93.9-36.2 26.2-26.2 34.4-58 36.2-93.9 2.1-37 2.1-147.8 0-184.8zM398.8 388c-7.8 19.6-22.9 34.7-42.6 42.6-29.5 11.7-99.5 9-132.1 9s-102.7 2.6-132.1-9c-19.6-7.8-34.7-22.9-42.6-42.6-11.7-29.5-9-99.5-9-132.1s-2.6-102.7 9-132.1c7.8-19.6 22.9-34.7 42.6-42.6 29.5-11.7 99.5-9 132.1-9s102.7-2.6 132.1 9c19.6 7.8 34.7 22.9 42.6 42.6 11.7 29.5 9 99.5 9 132.1s2.7 102.7-9 132.1z"/></svg>
	<svg xmlns:osb="http://www.openswatchbook.org/uri/2009/osb" xmlns:xlink="http://www.w3.org/1999/xlink" viewBox="0 0 512 512" width="25" height="25" id="twitter" y="114"><defs><linearGradient id="twitter-a" osb:paint="solid"><stop offset="0" stop-color="#9c9c9c"/></linearGradient><linearGradient xlink:href="#twitter-a" id="twitter-b" y1="256" x2="511.998" y2="256" gradientUnits="userSpaceOnUse"/></defs><path fill="url(#twitter-b)" d="M459.37 151.716c.325 4.548.325 9.097.325 13.645 0 138.72-105.583 298.558-298.558 298.558-59.452 0-114.68-17.219-161.137-47.106 8.447.974 16.568 1.299 25.34 1.299 49.055 0 94.213-16.568 130.274-44.832-46.132-.975-84.792-31.188-98.112-72.772 6.498.974 12.995 1.624 19.818 1.624 9.421 0 18.843-1.3 27.614-3.573-48.081-9.747-84.143-51.98-84.143-102.985v-1.299c13.969 7.797 30.214 12.67 47.431 13.319-28.264-18.843-46.781-51.005-46.781-87.391 0-19.492 5.197-37.36 14.294-52.954 51.655 63.675 129.3 105.258 216.365 109.807-1.624-7.797-2.599-15.918-2.599-24.04 0-57.828 46.782-104.934 104.934-104.934 30.213 0 57.502 12.67 76.67 33.137 23.715-4.548 46.456-13.32 66.599-25.34-7.798 24.366-24.366 44.833-46.132 57.827 21.117-2.273 41.584-8.122 60.426-16.243-14.292 20.791-32.161 39.308-52.628 54.253z"/></svg>
</svg>
