<?xml version="1.0"?>
<!--Icons from directory ""-->
<svg xmlns="http://www.w3.org/2000/svg" width="22" height="130" viewBox="0 0 18 130">
	<svg xmlns:osb="http://www.openswatchbook.org/uri/2009/osb" xmlns:xlink="http://www.w3.org/1999/xlink" aria-hidden="true" data-prefix="fas" data-icon="cog" class="svg-inline--fa fa-cog fa-w-16" viewBox="0 0 512 512" width="18" height="18" id="cog-solid" y="3"><defs><linearGradient id="cog-solid-a" osb:paint="solid"><stop offset="0"/></linearGradient><linearGradient xlink:href="#cog-solid-a" id="cog-solid-b" x1="18.145" y1="256.1" x2="493.964" y2="256.1" gradientUnits="userSpaceOnUse"/></defs><path d="M487.4 315.7l-42.6-24.6c4.3-23.2 4.3-47 0-70.2l42.6-24.6c4.9-2.8 7.1-8.6 5.5-14-11.1-35.6-30-67.8-54.7-94.6-3.8-4.1-10-5.1-14.8-2.3L380.8 110c-17.9-15.4-38.5-27.3-60.8-35.1V25.8c0-5.6-3.9-10.5-9.4-11.7-36.7-8.2-74.3-7.8-109.2 0-5.5 1.2-9.4 6.1-9.4 11.7V75c-22.2 7.9-42.8 19.8-60.8 35.1L88.7 85.5c-4.9-2.8-11-1.9-14.8 2.3-24.7 26.7-43.6 58.9-54.7 94.6-1.7 5.4.6 11.2 5.5 14L67.3 221c-4.3 23.2-4.3 47 0 70.2l-42.6 24.6c-4.9 2.8-7.1 8.6-5.5 14 11.1 35.6 30 67.8 54.7 94.6 3.8 4.1 10 5.1 14.8 2.3l42.6-24.6c17.9 15.4 38.5 27.3 60.8 35.1v49.2c0 5.6 3.9 10.5 9.4 11.7 36.7 8.2 74.3 7.8 109.2 0 5.5-1.2 9.4-6.1 9.4-11.7v-49.2c22.2-7.9 42.8-19.8 60.8-35.1l42.6 24.6c4.9 2.8 11 1.9 14.8-2.3 24.7-26.7 43.6-58.9 54.7-94.6 1.5-5.5-.7-11.3-5.6-14.1zM256 336c-44.1 0-80-35.9-80-80s35.9-80 80-80 80 35.9 80 80-35.9 80-80 80z" fill="#fff" stroke="url(#cog-solid-b)" stroke-width="10"/></svg>
	<svg xmlns:osb="http://www.openswatchbook.org/uri/2009/osb" xmlns:xlink="http://www.w3.org/1999/xlink" aria-hidden="true" data-prefix="far" data-icon="eye" class="svg-inline--fa fa-eye fa-w-18" viewBox="0 0 576 512" width="18" height="18" id="eye-regular" y="23"><defs><linearGradient id="eye-regular-a" osb:paint="solid"><stop offset="0" stop-color="#fff"/></linearGradient><linearGradient xlink:href="#eye-regular-a" id="eye-regular-b" x1=".001" y1="256" x2="575.999" y2="256" gradientUnits="userSpaceOnUse"/></defs><path fill="url(#eye-regular-b)" d="M288 144a110.94 110.94 0 0 0-31.24 5 55.4 55.4 0 0 1 7.24 27 56 56 0 0 1-56 56 55.4 55.4 0 0 1-27-7.24A111.71 111.71 0 1 0 288 144zm284.52 97.4C518.29 135.59 410.93 64 288 64S57.68 135.64 3.48 241.41a32.35 32.35 0 0 0 0 29.19C57.71 376.41 165.07 448 288 448s230.32-71.64 284.52-177.41a32.35 32.35 0 0 0 0-29.19zM288 400c-98.65 0-189.09-55-237.93-144C98.91 167 189.34 112 288 112s189.09 55 237.93 144C477.1 345 386.66 400 288 400z"/></svg>
	<svg xmlns:osb="http://www.openswatchbook.org/uri/2009/osb" xmlns:xlink="http://www.w3.org/1999/xlink" aria-hidden="true" data-prefix="far" data-icon="heart" class="svg-inline--fa fa-heart fa-w-16" viewBox="0 0 512 512" width="18" height="18" id="heart-regular" y="42"><defs><linearGradient id="heart-regular-a" osb:paint="solid"><stop offset="0" stop-color="#fff"/></linearGradient><linearGradient xlink:href="#heart-regular-a" id="heart-regular-b" y1="256.039" x2="512" y2="256.039" gradientUnits="userSpaceOnUse"/></defs><path fill="url(#heart-regular-b)" d="M458.4 64.3C400.6 15.7 311.3 23 256 79.3 200.7 23 111.4 15.6 53.6 64.3-21.6 127.6-10.6 230.8 43 285.5l175.4 178.7c10 10.2 23.4 15.9 37.6 15.9 14.3 0 27.6-5.6 37.6-15.8L469 285.6c53.5-54.7 64.7-157.9-10.6-221.3zm-23.6 187.5L259.4 430.5c-2.4 2.4-4.4 2.4-6.8 0L77.2 251.8c-36.5-37.2-43.9-107.6 7.3-150.7 38.9-32.7 98.9-27.8 136.5 10.5l35 35.7 35-35.7c37.8-38.5 97.8-43.2 136.5-10.6 51.1 43.1 43.5 113.9 7.3 150.8z"/></svg>
	<svg xmlns:osb="http://www.openswatchbook.org/uri/2009/osb" xmlns:xlink="http://www.w3.org/1999/xlink" aria-hidden="true" data-prefix="fas" data-icon="search" class="svg-inline--fa fa-search fa-w-16" viewBox="0 0 512 512" width="18" height="18" id="search-solid" y="63"><defs><linearGradient id="search-solid-a" osb:paint="solid"><stop offset="0" stop-color="#4b4b4b"/></linearGradient><linearGradient xlink:href="#search-solid-a" id="search-solid-c" x1="-.5" y1="256.023" x2="512.46" y2="256.023" gradientUnits="userSpaceOnUse"/><linearGradient xlink:href="#search-solid-a" id="search-solid-b" x1="-.5" y1="256.023" x2="512.46" y2="256.023" gradientUnits="userSpaceOnUse"/></defs><path d="M505 442.7L405.3 343c-4.5-4.5-10.6-7-17-7H372c27.6-35.3 44-79.7 44-128C416 93.1 322.9 0 208 0S0 93.1 0 208s93.1 208 208 208c48.3 0 92.7-16.4 128-44v16.3c0 6.4 2.5 12.5 7 17l99.7 99.7c9.4 9.4 24.6 9.4 33.9 0l28.3-28.3c9.4-9.4 9.4-24.6.1-34zM208 336c-70.7 0-129.8-57.2-129.8-128 0-70.7 59-129.8 129.8-129.8 70.7 0 128 59 128 129.8 0 70.7-57.2 128-128 128z" fill="url(#search-solid-b)"/></svg>
	<svg xmlns:osb="http://www.openswatchbook.org/uri/2009/osb" xmlns:xlink="http://www.w3.org/1999/xlink" aria-hidden="true" data-prefix="fas" data-icon="shopping-cart" class="svg-inline--fa fa-shopping-cart fa-w-18" viewBox="0 0 576 512" width="18" height="18" id="shopping-cart-solid" y="84"><defs><linearGradient id="shopping-cart-solid-a" osb:paint="solid"><stop offset="0" stop-color="#4b4b4b"/></linearGradient><linearGradient xlink:href="#shopping-cart-solid-a" id="shopping-cart-solid-b" y1="256" x2="576" y2="256" gradientUnits="userSpaceOnUse"/></defs><path fill="url(#shopping-cart-solid-b)" d="M528.12 301.319l47.273-208C578.806 78.301 567.391 64 551.99 64H159.208l-9.166-44.81C147.758 8.021 137.93 0 126.529 0H24C10.745 0 0 10.745 0 24v16c0 13.255 10.745 24 24 24h69.883l70.248 343.435C147.325 417.1 136 435.222 136 456c0 30.928 25.072 56 56 56s56-25.072 56-56c0-15.674-6.447-29.835-16.824-40h209.647C430.447 426.165 424 440.326 424 456c0 30.928 25.072 56 56 56s56-25.072 56-56c0-22.172-12.888-41.332-31.579-50.405l5.517-24.276c3.413-15.018-8.002-29.319-23.403-29.319H218.117l-6.545-32h293.145c11.206 0 20.92-7.754 23.403-18.681z"/></svg>
	<svg xmlns:osb="http://www.openswatchbook.org/uri/2009/osb" xmlns:xlink="http://www.w3.org/1999/xlink" aria-hidden="true" data-prefix="fas" data-icon="shopping-cart" class="svg-inline--fa fa-shopping-cart fa-w-18" viewBox="0 0 576 512" width="18" height="18" id="shopping-cart-solid_white" y="105"><defs><linearGradient id="shopping-cart-solid_white-a" osb:paint="solid"><stop offset="0" stop-color="#fff"/></linearGradient><linearGradient xlink:href="#shopping-cart-solid_white-a" id="shopping-cart-solid_white-b" y1="256" x2="576" y2="256" gradientUnits="userSpaceOnUse"/></defs><path fill="url(#shopping-cart-solid_white-b)" d="M528.12 301.319l47.273-208C578.806 78.301 567.391 64 551.99 64H159.208l-9.166-44.81C147.758 8.021 137.93 0 126.529 0H24C10.745 0 0 10.745 0 24v16c0 13.255 10.745 24 24 24h69.883l70.248 343.435C147.325 417.1 136 435.222 136 456c0 30.928 25.072 56 56 56s56-25.072 56-56c0-15.674-6.447-29.835-16.824-40h209.647C430.447 426.165 424 440.326 424 456c0 30.928 25.072 56 56 56s56-25.072 56-56c0-22.172-12.888-41.332-31.579-50.405l5.517-24.276c3.413-15.018-8.002-29.319-23.403-29.319H218.117l-6.545-32h293.145c11.206 0 20.92-7.754 23.403-18.681z"/></svg>
</svg>
